<?xml version="1.0" encoding="UTF-8" standalone="no"?>
<svg width="18px" height="18px" viewBox="0 0 18 18" version="1.1" xmlns="http://www.w3.org/2000/svg" xmlns:xlink="http://www.w3.org/1999/xlink">
    <!-- Generator: sketchtool 3.8.3 (29802) - http://www.bohemiancoding.com/sketch -->
    <title>D12920A7-B195-4C71-ABFB-6D248110DA9E</title>
    <desc>Created with sketchtool.</desc>
    <defs></defs>
    <g id="Page-1" stroke="none" stroke-width="1" fill="none" fill-rule="evenodd">
        <g id="Style-Tab" transform="translate(-206.000000, -243.000000)" fill="#FFFFFF">
            <g id="Right-Panel" transform="translate(-1.000000, 0.000000)">
                <g id="Style-tab" transform="translate(0.000000, 10.000000)">
                    <g id="BACKGROUND" transform="translate(1.000000, 194.000000)">
                        <g id="Select-background-type" transform="translate(0.000000, 34.000000)">
                            <g id="Gradient" transform="translate(200.000000, 0.000000)">
                                <g id="Group-16" transform="translate(6.000000, 5.000000)">
                                    <path d="M8,6 L10,6 L10,8 L8,8 L8,6 Z M6,8 L8,8 L8,10 L6,10 L6,8 Z M10,8 L12,8 L12,10 L10,10 L10,8 Z M12,6 L14,6 L14,8 L12,8 L12,6 Z M4,6 L6,6 L6,8 L4,8 L4,6 Z M16,0 L2,0 C0.9,0 0,0.9 0,2 L0,16 C0,17.1 0.9,18 2,18 L16,18 C17.1,18 18,17.1 18,16 L18,2 C18,0.9 17.1,0 16,0 L16,0 Z M4,13 L6,13 L6,15 L4,15 L4,13 Z M8,13 L10,13 L10,15 L8,15 L8,13 Z M12,13 L14,13 L14,15 L12,15 L12,13 Z M16,8 L14,8 L14,10 L16,10 L16,12 L14,12 L14,10 L12,10 L12,12 L10,12 L10,10 L8,10 L8,12 L6,12 L6,10 L4,10 L4,12 L2,12 L2,10 L4,10 L4,8 L2,8 L2,2 L16,2 L16,8 L16,8 Z" id="Fill-385"></path>
                                </g>
                            </g>
                        </g>
                    </g>
                </g>
            </g>
        </g>
    </g>
</svg>