<?xml version="1.0" encoding="UTF-8" standalone="no"?>
<svg width="17px" height="16px" viewBox="0 0 17 16" version="1.1" xmlns="http://www.w3.org/2000/svg" xmlns:xlink="http://www.w3.org/1999/xlink">
    <!-- Generator: sketchtool 39.1 (31720) - http://www.bohemiancoding.com/sketch -->
    <title>8CF79AEF-852B-4B94-97B1-C7992095FD61</title>
    <desc>Created with sketchtool.</desc>
    <defs></defs>
    <g id="Page-1" stroke="none" stroke-width="1" fill="none" fill-rule="evenodd">
        <g id="Style-Tab" transform="translate(-117.000000, -245.000000)" fill="#FFFFFF">
            <g id="Right-Panel" transform="translate(-1.000000, 0.000000)">
                <g id="Style-tab" transform="translate(0.000000, 10.000000)">
                    <g id="BACKGROUND" transform="translate(1.000000, 194.000000)">
                        <g id="Select-background-type" transform="translate(0.000000, 34.000000)">
                            <g id="Color" transform="translate(110.000000, 0.000000)">
                                <g id="Group-13" transform="translate(6.000000, 7.000000)">
                                    <path d="M16.1312838,2.19344535 L14.1815546,0.243716151 C13.8565998,-0.0812387168 13.3316727,-0.0812387168 13.0067178,0.243716151 L10.4070789,2.84335509 L8.79896889,1.25190946 L7.62413206,2.42674629 L8.80730107,3.60991529 L1.375,11.0422164 L1.375,15 L5.33278364,15 L12.7650847,7.56769893 L13.9482537,8.75086794 L15.1230905,7.57603111 L13.5233127,5.9762533 L16.1229517,3.37661436 C16.4562387,3.04332732 16.4562387,2.51840022 16.1312838,2.19344535 L16.1312838,2.19344535 Z M4.64121303,13.3335648 L3.04143522,11.733787 L9.75716914,5.01805305 L11.356947,6.61783086 L4.64121303,13.3335648 L4.64121303,13.3335648 Z" id="Fill-338"></path>
                                </g>
                            </g>
                        </g>
                    </g>
                </g>
            </g>
        </g>
    </g>
</svg>