<?xml version="1.0" encoding="UTF-8" standalone="no"?>
<svg width="17px" height="17px" viewBox="0 0 17 17" version="1.1" xmlns="http://www.w3.org/2000/svg" xmlns:xlink="http://www.w3.org/1999/xlink">
    <!-- Generator: sketchtool 3.8.3 (29802) - http://www.bohemiancoding.com/sketch -->
    <title>58E79834-FD9F-47E1-8C32-578FA8CFCB1B</title>
    <desc>Created with sketchtool.</desc>
    <defs></defs>
    <g id="Page-1" stroke="none" stroke-width="1" fill="none" fill-rule="evenodd">
        <g id="Style-Tab" transform="translate(-176.000000, -244.000000)" fill="#FFFFFF">
            <g id="Right-Panel" transform="translate(-1.000000, 0.000000)">
                <g id="Style-tab" transform="translate(0.000000, 10.000000)">
                    <g id="BACKGROUND" transform="translate(1.000000, 194.000000)">
                        <g id="Select-background-type" transform="translate(0.000000, 34.000000)">
                            <g id="Video" transform="translate(170.000000, 0.000000)">
                                <g id="Group-15" transform="translate(6.000000, 6.000000)">
                                    <path d="M6.8,12.325 L11.9,8.5 L6.8,4.675 L6.8,12.325 L6.8,12.325 Z M8.5,0 C3.808,0 0,3.808 0,8.5 C0,13.192 3.808,17 8.5,17 C13.192,17 17,13.192 17,8.5 C17,3.808 13.192,0 8.5,0 L8.5,0 Z M8.5,15.3 C4.7515,15.3 1.7,12.2485 1.7,8.5 C1.7,4.7515 4.7515,1.7 8.5,1.7 C12.2485,1.7 15.3,4.7515 15.3,8.5 C15.3,12.2485 12.2485,15.3 8.5,15.3 L8.5,15.3 Z" id="Video"></path>
                                </g>
                            </g>
                        </g>
                    </g>
                </g>
            </g>
        </g>
    </g>
</svg>