<?xml version="1.0" encoding="UTF-8"?>
<svg width="9px" height="9px" viewBox="0 0 9 9" version="1.1" xmlns="http://www.w3.org/2000/svg" xmlns:xlink="http://www.w3.org/1999/xlink">
    <!-- Generator: sketchtool 42 (36781) - http://www.bohemiancoding.com/sketch -->
    <title>591F8552-E2B3-409E-8B61-1E2A8BC7A138</title>
    <desc>Created with sketchtool.</desc>
    <defs></defs>
    <g id="Page-1" stroke="none" stroke-width="1" fill="none" fill-rule="evenodd">
        <g id="Full-View" transform="translate(-336.000000, -649.000000)" fill="#D8D8D8">
            <g id="Main-column" transform="translate(30.000000, 112.000000)">
                <g id="blank-section-+-container-+-2-col-(-parent-hierarchy-)" transform="translate(18.000000, 532.000000)">
                    <g id="selector-label" transform="translate(118.000000, 0.000000)">
                        <g id="label-options">
                            <g id="Group-33" transform="translate(164.000000, 0.000000)">
                                <g id="Copy-element">
                                    <g id="copy-icon">
                                        <g id="Group-34">
                                            <g id="Group-37" transform="translate(6.000000, 5.000000)">
                                                <path d="M2,2 L9,2 L9,9 L2,9 L2,2 Z M1,5.5 L1,6 L0,6 L0,5.5 L0,0.5 L0,0 L1,0 L1,0.5 L1,5.5 Z M5.5,0 L6,0 L6,1 L5.5,1 L1.5,1 L1,1 L1,0 L1.5,0 L5.5,0 Z" id="Combined-Shape"></path>
                                            </g>
                                        </g>
                                    </g>
                                </g>
                            </g>
                        </g>
                    </g>
                </g>
            </g>
        </g>
    </g>
</svg>