<?xml version="1.0" encoding="UTF-8"?>
<svg width="19px" height="17px" viewBox="0 0 19 17" version="1.1" xmlns="http://www.w3.org/2000/svg" xmlns:xlink="http://www.w3.org/1999/xlink">
    <!-- Generator: sketchtool 42 (36781) - http://www.bohemiancoding.com/sketch -->
    <title>7AFFC3D6-ACE6-45A6-BE5F-0241D380A2FD</title>
    <desc>Created with sketchtool.</desc>
    <defs></defs>
    <g id="Page-1" stroke="none" stroke-width="1" fill="none" fill-rule="evenodd">
        <g id="Full-View" transform="translate(-1406.000000, -194.000000)" fill="#FFFFFF">
            <g id="Right-Panel" transform="translate(1197.000000, 72.000000)">
                <g id="Display-option" transform="translate(0.000000, 80.000000)">
                    <g id="Display-settings" transform="translate(12.000000, 35.000000)">
                        <g id="button-hide" transform="translate(191.000000, 0.000000)">
                            <g id="Icon-none" transform="translate(6.000000, 7.000000)">
                                <path d="M9.27923032,3.88009636 C11.5382197,3.88009636 13.3716392,5.71351586 13.3716392,7.97250529 C13.3716392,8.5046792 13.2654583,9.00385664 13.0772092,9.47046063 L15.4673384,11.8605899 C16.7030141,10.8292385 17.6772562,9.49499647 18.275,7.97250529 C16.8586898,4.3792738 13.3636016,1.83346886 9.27076968,1.83346886 C8.12477673,1.83346886 7.0282785,2.03821622 6.01300235,2.40667685 L7.78127497,4.17452644 C8.24787897,3.98627732 8.7470564,3.88009636 9.27923032,3.88009636 L9.27923032,3.88009636 Z M1.09356639,1.64521974 L3.33648061,3.88813396 C1.9777027,4.94402115 0.913777908,6.35187074 0.275,7.97250529 C1.69131022,11.5661598 5.18639835,14.1115417 9.27923032,14.1115417 C10.5479025,14.1115417 11.7590423,13.8661833 12.8644242,13.4241152 L13.207926,13.76804 L15.6065159,16.1581692 L16.6459048,15.1183572 L2.13337838,0.605830787 L1.09356639,1.64521974 L1.09356639,1.64521974 Z M5.62000588,6.17165922 L6.88910106,7.44075441 C6.84806698,7.61250529 6.82353114,7.7927168 6.82353114,7.97250529 C6.82353114,9.3312832 7.92045241,10.4282045 9.27923032,10.4282045 C9.4590188,10.4282045 9.63923032,10.4036686 9.8109812,10.3626345 L11.0800764,11.6317297 C10.5314042,11.901624 9.9256228,12.0653373 9.27923032,12.0653373 C7.01981786,12.0653373 5.18639835,10.2319177 5.18639835,7.97250529 C5.18639835,7.32611281 5.35011163,6.72033137 5.62000588,6.17165922 L5.62000588,6.17165922 Z M9.14809048,5.53330435 L11.7264689,8.11168273 L11.7429671,7.98096592 C11.7429671,6.62218801 10.6460458,5.52526675 9.28726792,5.52526675 L9.14809048,5.53330435 L9.14809048,5.53330435 Z" id="None"></path>
                            </g>
                        </g>
                    </g>
                </g>
            </g>
        </g>
    </g>
</svg>