<?xml version="1.0" encoding="UTF-8"?>
<svg width="22px" height="16px" viewBox="0 0 22 16" version="1.1" xmlns="http://www.w3.org/2000/svg" xmlns:xlink="http://www.w3.org/1999/xlink">
    <!-- Generator: sketchtool 41.1 (35376) - http://www.bohemiancoding.com/sketch -->
    <title>77FF8F0C-8E5D-4B62-A217-D09FF72DF8E2</title>
    <desc>Created with sketchtool.</desc>
    <defs>
        <rect id="path-1" x="0" y="0" width="22" height="16" rx="2"></rect>
        <mask id="mask-2" maskContentUnits="userSpaceOnUse" maskUnits="objectBoundingBox" x="0" y="0" width="22" height="16" fill="white">
            <use xlink:href="#path-1"></use>
        </mask>
    </defs>
    <g id="Page-1" stroke="none" stroke-width="1" fill="none" fill-rule="evenodd">
        <g id="Full-View" transform="translate(-1314.000000, -194.000000)">
            <g id="Right-Panel" transform="translate(1197.000000, 72.000000)">
                <g id="Display-option" transform="translate(0.000000, 80.000000)">
                    <g id="Display-settings" transform="translate(12.000000, 35.000000)">
                        <g id="button-inline-block" transform="translate(101.000000, 0.000000)">
                            <g id="icon" transform="translate(4.000000, 7.000000)">
                                <path d="M3,8 C3,9.1 3.9,10 5,10 C6.1,10 7,9.1 7,8 C7,6.9 6.1,6 5,6 C3.9,6 3,6.9 3,8 Z M15,8 C15,9.1 15.9,10 17,10 C18.1,10 19,9.1 19,8 C19,6.9 18.1,6 17,6 C15.9,6 15,6.9 15,8 Z M9,8 C9,9.1 9.9,10 11,10 C12.1,10 13,9.1 13,8 C13,6.9 12.1,6 11,6 C9.9,6 9,6.9 9,8 Z" id="Fill-199" fill="#FFFFFF"></path>
                                <use id="Rectangle-5" stroke="#FFFFFF" mask="url(#mask-2)" stroke-width="2" opacity="0.5" xlink:href="#path-1"></use>
                            </g>
                        </g>
                    </g>
                </g>
            </g>
        </g>
    </g>
</svg>