<?xml version="1.0" encoding="UTF-8"?>
<svg width="16px" height="4px" viewBox="0 0 16 4" version="1.1" xmlns="http://www.w3.org/2000/svg" xmlns:xlink="http://www.w3.org/1999/xlink">
    <!-- Generator: sketchtool 40.3 (33839) - http://www.bohemiancoding.com/sketch -->
    <title>739B5B42-DB56-4061-85B9-A13FCB411C78</title>
    <desc>Created with sketchtool.</desc>
    <defs></defs>
    <g id="Page-1" stroke="none" stroke-width="1" fill="none" fill-rule="evenodd">
        <g id="Full-View" transform="translate(-1347.000000, -200.000000)" fill="#FFFFFF">
            <g id="Right-Panel" transform="translate(1197.000000, 72.000000)">
                <g id="Display-option" transform="translate(0.000000, 80.000000)">
                    <g id="Display-settings" transform="translate(12.000000, 35.000000)">
                        <g id="button-inline" transform="translate(131.000000, 0.000000)">
                            <g id="icon" transform="translate(7.000000, 13.000000)">
                                <path d="M2,0 C0.9,0 0,0.9 0,2 C0,3.1 0.9,4 2,4 C3.1,4 4,3.1 4,2 C4,0.9 3.1,0 2,0 L2,0 Z M14,0 C12.9,0 12,0.9 12,2 C12,3.1 12.9,4 14,4 C15.1,4 16,3.1 16,2 C16,0.9 15.1,0 14,0 L14,0 Z M8,0 C6.9,0 6,0.9 6,2 C6,3.1 6.9,4 8,4 C9.1,4 10,3.1 10,2 C10,0.9 9.1,0 8,0 L8,0 Z" id="inline"></path>
                            </g>
                        </g>
                    </g>
                </g>
            </g>
        </g>
    </g>
</svg>