<?xml version="1.0" encoding="UTF-8" standalone="no"?>
<svg width="15px" height="8px" viewBox="0 0 15 8" version="1.1" xmlns="http://www.w3.org/2000/svg" xmlns:xlink="http://www.w3.org/1999/xlink">
    <!-- Generator: sketchtool 39.1 (31720) - http://www.bohemiancoding.com/sketch -->
    <title>1D263F4D-21BD-493A-824B-65F3C583DC0C</title>
    <desc>Created with sketchtool.</desc>
    <defs></defs>
    <g id="Page-1" stroke="none" stroke-width="1" fill="none" fill-rule="evenodd">
        <g id="Full-View" transform="translate(-240.000000, -769.000000)">
            <g id="Main-column" transform="translate(30.000000, 112.000000)">
                <g id="blank-section-+-container-+-2-col-(-move-element-)" transform="translate(120.000000, 652.000000)">
                    <g id="Copy-element" transform="translate(69.000000, 0.000000)">
                        <g id="Icon-24px" transform="translate(20.000000, 1.000000)">
                            <polygon id="Shape" points="0 0 17 0 17 17 0 17"></polygon>
                            <path d="M2.74666667,8.45833333 C2.74666667,7.26133333 3.71966667,6.28833333 4.91666667,6.28833333 L7.71666667,6.28833333 L7.71666667,4.95833333 L4.91666667,4.95833333 C2.98466667,4.95833333 1.41666667,6.52633333 1.41666667,8.45833333 C1.41666667,10.3903333 2.98466667,11.9583333 4.91666667,11.9583333 L7.71666667,11.9583333 L7.71666667,10.6283333 L4.91666667,10.6283333 C3.71966667,10.6283333 2.74666667,9.65533333 2.74666667,8.45833333 L2.74666667,8.45833333 Z M5.61666667,9.15833333 L11.2166667,9.15833333 L11.2166667,7.75833333 L5.61666667,7.75833333 L5.61666667,9.15833333 L5.61666667,9.15833333 Z M11.9166667,4.95833333 L9.11666667,4.95833333 L9.11666667,6.28833333 L11.9166667,6.28833333 C13.1136667,6.28833333 14.0866667,7.26133333 14.0866667,8.45833333 C14.0866667,9.65533333 13.1136667,10.6283333 11.9166667,10.6283333 L9.11666667,10.6283333 L9.11666667,11.9583333 L11.9166667,11.9583333 C13.8486667,11.9583333 15.4166667,10.3903333 15.4166667,8.45833333 C15.4166667,6.52633333 13.8486667,4.95833333 11.9166667,4.95833333 L11.9166667,4.95833333 Z" id="Shape" fill="#C6C6C6"></path>
                        </g>
                    </g>
                </g>
            </g>
        </g>
    </g>
</svg>