<?xml version="1.0" encoding="UTF-8" standalone="no"?>
<svg width="19px" height="18px" viewBox="0 0 19 18" version="1.1" xmlns="http://www.w3.org/2000/svg" xmlns:xlink="http://www.w3.org/1999/xlink">
    <!-- Generator: sketchtool 3.8.3 (29802) - http://www.bohemiancoding.com/sketch -->
    <title>2F3008CB-061A-4AC9-8EB3-83C457CB3E08</title>
    <desc>Created with sketchtool.</desc>
    <defs></defs>
    <g id="Page-1" stroke="none" stroke-width="1" fill="none" fill-rule="evenodd">
        <g id="Icons" transform="translate(-110.000000, -674.000000)" fill="#FFFFFF">
            <g id="Wrap-and-reverse-sub-option" transform="translate(70.000000, 668.000000)">
                <g id="Wrap-children-" transform="translate(35.000000, 0.000000)">
                    <g id="Group-6" transform="translate(5.000000, 6.000000)">
                        <path d="M0,15.75 L6.75,15.75 L6.75,13.5 L0,13.5 L0,15.75 L0,15.75 Z M18,0 L0,0 L0,2.25 L18,2.25 L18,0 L18,0 Z M14.625,6.75 L0,6.75 L0,9 L14.90625,9 C16.14375,9 17.15625,10.0125 17.15625,11.25 C17.15625,12.4875 16.14375,13.5 14.90625,13.5 L12.375,13.5 L12.375,11.25 L9,14.625 L12.375,18 L12.375,15.75 L14.625,15.75 C17.11125,15.75 19.125,13.73625 19.125,11.25 C19.125,8.76375 17.11125,6.75 14.625,6.75 L14.625,6.75 Z" id="Shape" transform="translate(9.562500, 9.000000) scale(-1, 1) translate(-9.562500, -9.000000) "></path>
                    </g>
                </g>
            </g>
        </g>
    </g>
</svg>