<?xml version="1.0" encoding="UTF-8" standalone="no"?>
<svg width="18px" height="19px" viewBox="0 0 18 19" version="1.1" xmlns="http://www.w3.org/2000/svg" xmlns:xlink="http://www.w3.org/1999/xlink">
    <!-- Generator: sketchtool 3.8.3 (29802) - http://www.bohemiancoding.com/sketch -->
    <title>BB8910E9-3DDD-46A1-9291-2BDB8EF7C9A2</title>
    <desc>Created with sketchtool.</desc>
    <defs></defs>
    <g id="Page-1" stroke="none" stroke-width="1" fill="none" fill-rule="evenodd">
        <g id="Icons" transform="translate(-157.000000, -672.000000)" fill="#FFFFFF">
            <g id="Wrap-and-reverse-sub-option" transform="translate(70.000000, 668.000000)">
                <g id="Wrap-children---col" transform="translate(95.000000, 15.000000) scale(-1, 1) translate(-95.000000, -15.000000) translate(80.000000, 0.000000)">
                    <g id="Group-16" transform="translate(5.000000, 4.000000)">
                        <path d="M-0.5625,16.3125 L6.1875,16.3125 L6.1875,14.0625 L-0.5625,14.0625 L-0.5625,16.3125 L-0.5625,16.3125 Z M17.4375,0.5625 L-0.5625,0.5625 L-0.5625,2.8125 L17.4375,2.8125 L17.4375,0.5625 L17.4375,0.5625 Z M14.0625,7.3125 L-0.5625,7.3125 L-0.5625,9.5625 L14.34375,9.5625 C15.58125,9.5625 16.59375,10.575 16.59375,11.8125 C16.59375,13.05 15.58125,14.0625 14.34375,14.0625 L11.8125,14.0625 L11.8125,11.8125 L8.4375,15.1875 L11.8125,18.5625 L11.8125,16.3125 L14.0625,16.3125 C16.54875,16.3125 18.5625,14.29875 18.5625,11.8125 C18.5625,9.32625 16.54875,7.3125 14.0625,7.3125 L14.0625,7.3125 Z" id="Shape" transform="translate(9.000000, 9.562500) scale(1, -1) rotate(90.000000) translate(-9.000000, -9.562500) "></path>
                    </g>
                </g>
            </g>
        </g>
    </g>
</svg>