<?xml version="1.0" encoding="UTF-8" standalone="no"?>
<svg width="22px" height="23px" viewBox="0 0 22 23" version="1.1" xmlns="http://www.w3.org/2000/svg" xmlns:xlink="http://www.w3.org/1999/xlink">
    <!-- Generator: sketchtool 3.8.3 (29802) - http://www.bohemiancoding.com/sketch -->
    <title>767FA698-A25F-4A93-857F-C189F8B5957A</title>
    <desc>Created with sketchtool.</desc>
    <defs>
        <rect id="path-1" x="4" y="2" width="6" height="8"></rect>
        <mask id="mask-2" maskContentUnits="userSpaceOnUse" maskUnits="objectBoundingBox" x="0" y="0" width="6" height="8" fill="white">
            <use xlink:href="#path-1"></use>
        </mask>
        <rect id="path-3" x="12" y="2" width="6" height="8"></rect>
        <mask id="mask-4" maskContentUnits="userSpaceOnUse" maskUnits="objectBoundingBox" x="0" y="0" width="6" height="8" fill="white">
            <use xlink:href="#path-3"></use>
        </mask>
        <rect id="path-5" x="4" y="13" width="6" height="8"></rect>
        <mask id="mask-6" maskContentUnits="userSpaceOnUse" maskUnits="objectBoundingBox" x="0" y="0" width="6" height="8" fill="white">
            <use xlink:href="#path-5"></use>
        </mask>
        <rect id="path-7" x="12" y="13" width="6" height="8"></rect>
        <mask id="mask-8" maskContentUnits="userSpaceOnUse" maskUnits="objectBoundingBox" x="0" y="0" width="6" height="8" fill="white">
            <use xlink:href="#path-7"></use>
        </mask>
    </defs>
    <g id="Page-1" stroke="none" stroke-width="1" fill="none" fill-rule="evenodd">
        <g id="Icons" transform="translate(-124.000000, -491.000000)" fill="#FFFFFF">
            <g id="row:-reverse-wrap-children-sub-buttons" transform="translate(19.000000, 465.000000)">
                <g id="align-rows(rev):-stretch" transform="translate(101.000000, 23.000000)">
                    <g id="Group-2" transform="translate(15.000000, 14.500000) rotate(-180.000000) translate(-15.000000, -14.500000) translate(4.000000, 3.000000)">
                        <g id="shape" transform="translate(11.000000, 11.500000) rotate(-180.000000) translate(-11.000000, -11.500000) ">
                            <use id="Rectangle-99" stroke-opacity="0.7" stroke="#FFFFFF" mask="url(#mask-2)" stroke-width="2" fill-opacity="0.7" xlink:href="#path-1"></use>
                            <use id="Rectangle-99-Copy" stroke-opacity="0.7" stroke="#FFFFFF" mask="url(#mask-4)" stroke-width="2" fill-opacity="0.7" xlink:href="#path-3"></use>
                            <use id="Rectangle-99-Copy-7" stroke-opacity="0.7" stroke="#FFFFFF" mask="url(#mask-6)" stroke-width="2" fill-opacity="0.2" xlink:href="#path-5"></use>
                            <use id="Rectangle-99-Copy-6" stroke-opacity="0.7" stroke="#FFFFFF" mask="url(#mask-8)" stroke-width="2" fill-opacity="0.2" xlink:href="#path-7"></use>
                            <polyline id="Rectangle-101" fill-opacity="0.502717391" points="22 -1.77635684e-15 22 1 -3.55271368e-15 1 -3.55271368e-15 -5.32907052e-15 22 -1.77635684e-15"></polyline>
                            <polyline id="Rectangle-101-Copy-4" fill-opacity="0.502717391" points="22 11 22 12 -3.55271368e-15 12 -3.55271368e-15 11 22 11"></polyline>
                            <polyline id="Rectangle-101-Copy-5" fill-opacity="0.502717391" points="22 22 22 23 0 23 0 22 22 22"></polyline>
                        </g>
                    </g>
                </g>
            </g>
        </g>
    </g>
</svg>