<?xml version="1.0" encoding="UTF-8" standalone="no"?>
<svg width="18px" height="19px" viewBox="0 0 18 19" version="1.1" xmlns="http://www.w3.org/2000/svg" xmlns:xlink="http://www.w3.org/1999/xlink">
    <!-- Generator: sketchtool 3.8.3 (29802) - http://www.bohemiancoding.com/sketch -->
    <title>B171486E-6AE5-4B4F-AAC5-07EF7B957792</title>
    <desc>Created with sketchtool.</desc>
    <defs></defs>
    <g id="Page-1" stroke="none" stroke-width="1" fill="none" fill-rule="evenodd">
        <g id="Icons" transform="translate(-154.000000, -708.000000)" fill="#FFFFFF">
            <g id="Wrap-and-reverse-sub-option" transform="translate(70.000000, 668.000000)">
                <g id="Wrap-children--col--reverse" transform="translate(80.000000, 35.000000)">
                    <g id="Group-21" transform="translate(4.000000, 5.000000)">
                        <path d="M-0.562352966,16.308236 L6.18588262,16.308236 L6.18588262,14.0588241 L-0.562352966,14.0588241 L-0.562352966,16.308236 L-0.562352966,16.308236 Z M17.4329419,0.562352966 L-0.562352966,0.562352966 L-0.562352966,2.81176483 L17.4329419,2.81176483 L17.4329419,0.562352966 L17.4329419,0.562352966 Z M14.0588241,7.31058856 L-0.562352966,7.31058856 L-0.562352966,9.56000042 L14.3400006,9.56000042 C15.5771772,9.56000042 16.5894125,10.5722358 16.5894125,11.8094123 C16.5894125,13.0465888 15.5771772,14.0588241 14.3400006,14.0588241 L11.8094123,14.0588241 L11.8094123,11.8094123 L8.43529449,15.1835301 L11.8094123,18.5576479 L11.8094123,16.308236 L14.0588241,16.308236 C16.5444243,16.308236 18.5576479,14.2950124 18.5576479,11.8094123 C18.5576479,9.32381217 16.5444243,7.31058856 14.0588241,7.31058856 L14.0588241,7.31058856 Z" id="Shape" transform="translate(8.997647, 9.560000) scale(1, -1) rotate(90.000000) translate(-8.997647, -9.560000) "></path>
                    </g>
                </g>
            </g>
        </g>
    </g>
</svg>