<?xml version="1.0" encoding="UTF-8" standalone="no"?>
<svg width="16px" height="12px" viewBox="0 0 16 12" version="1.1" xmlns="http://www.w3.org/2000/svg" xmlns:xlink="http://www.w3.org/1999/xlink">
    <!-- Generator: sketchtool 3.8.2 (29753) - http://www.bohemiancoding.com/sketch -->
    <title>D7C66838-B9EF-4C8C-8573-2F47DF45D674</title>
    <desc>Created with sketchtool.</desc>
    <defs></defs>
    <g id="Page-1" stroke="none" stroke-width="1" fill="none" fill-rule="evenodd">
        <g id="Style" transform="translate(-11.000000, -114.000000)">
            <g id="Right-Panel" transform="translate(-1.000000, 0.000000)">
                <g id="Style-tab" transform="translate(0.000000, 10.000000)">
                    <g id="TYPOGRAPHY" transform="translate(7.000000, 40.000000)">
                        <g id="Font-Weight" transform="translate(5.000000, 60.000000)">
                            <g id="AAA" transform="translate(0.000000, 4.000000)">
                                <path d="M7.97216387,11.1428571 L7.24842437,8.61830357 L3.6092437,8.61830357 L2.8855042,11.1428571 L0.605042017,11.1428571 L4.12815126,0.493303571 L6.71586134,0.493303571 L10.2526261,11.1428571 L7.97216387,11.1428571 Z M6.74317227,6.73214286 C6.07405128,4.44455701 5.69739188,3.15085715 5.61318277,2.85100446 C5.52897367,2.55115177 5.46866265,2.31417498 5.4322479,2.14006696 C5.28203706,2.75911768 4.85189431,4.28979434 4.14180672,6.73214286 L6.74317227,6.73214286 Z" id="A-Copy" fill="#BCBCBC"></path>
                                <path d="M12.7158613,11.1428571 L12.2242647,9.15513393 L8.98109244,9.15513393 L8.47584034,11.1428571 L5.51260504,11.1428571 L8.76943277,0.493303571 L12.3676471,0.493303571 L15.6654412,11.1428571 L12.7158613,11.1428571 Z M11.6643908,6.8046875 L11.2342437,5.06361607 C11.1341031,4.67670937 11.0123432,4.17615634 10.8689601,3.56194196 C10.725577,2.94772758 10.6311277,2.50762782 10.5856092,2.24162946 C10.5446427,2.48828248 10.4638486,2.89452842 10.3432248,3.46037946 C10.2226009,4.02623051 9.95518414,5.14098871 9.54096639,6.8046875 L11.6643908,6.8046875 Z" id="A-Copy-2" fill="#FFFFFF"></path>
                            </g>
                        </g>
                    </g>
                </g>
            </g>
        </g>
    </g>
</svg>