<?xml version="1.0" encoding="UTF-8" standalone="no"?>
<svg width="19px" height="12px" viewBox="0 0 19 12" version="1.1" xmlns="http://www.w3.org/2000/svg" xmlns:xlink="http://www.w3.org/1999/xlink">
    <!-- Generator: sketchtool 3.8.2 (29753) - http://www.bohemiancoding.com/sketch -->
    <title>B73D6F4A-3DFD-41AF-BE07-170CF53ABD11</title>
    <desc>Created with sketchtool.</desc>
    <defs></defs>
    <g id="Page-1" stroke="none" stroke-width="1" fill="none" fill-rule="evenodd">
        <g id="Style" transform="translate(-79.000000, -144.000000)" fill="#FFFFFF">
            <g id="Right-Panel" transform="translate(-1.000000, 0.000000)">
                <g id="Style-tab" transform="translate(0.000000, 10.000000)">
                    <g id="TYPOGRAPHY" transform="translate(7.000000, 40.000000)">
                        <g id="Font-Style" transform="translate(73.000000, 90.000000)">
                            <path d="M14.9648438,14.9140625 C14.4830705,15.0963551 13.9661486,15.1875 13.4140625,15.1875 C12.5025996,15.1875 11.8020858,14.964846 11.3125,14.5195312 C10.8229142,14.0742165 10.578125,13.5052118 10.578125,12.8125 C10.578125,12.406248 10.670572,12.0351579 10.8554688,11.6992188 C11.0403655,11.3632796 11.2825506,11.093751 11.5820312,10.890625 C11.8815119,10.687499 12.2187481,10.5338547 12.59375,10.4296875 C12.869793,10.3567705 13.2864555,10.2864587 13.84375,10.21875 C14.9791723,10.0833327 15.8151015,9.92187594 16.3515625,9.734375 C16.3567709,9.5416657 16.359375,9.41927109 16.359375,9.3671875 C16.359375,8.79426797 16.2265638,8.39062617 15.9609375,8.15625 C15.6015607,7.83854008 15.0677119,7.6796875 14.359375,7.6796875 C13.6979134,7.6796875 13.209637,7.79557176 12.8945312,8.02734375 C12.5794255,8.25911574 12.3463549,8.66926789 12.1953125,9.2578125 L10.8203125,9.0703125 C10.9453131,8.48176789 11.1510402,8.00651223 11.4375,7.64453125 C11.7239598,7.28255027 12.1380181,7.00390723 12.6796875,6.80859375 C13.2213569,6.61328027 13.8489548,6.515625 14.5625,6.515625 C15.2708369,6.515625 15.846352,6.5989575 16.2890625,6.765625 C16.731773,6.9322925 17.0572906,7.14192582 17.265625,7.39453125 C17.4739594,7.64713668 17.6197912,7.96614391 17.703125,8.3515625 C17.7500002,8.59114703 17.7734375,9.02343438 17.7734375,9.6484375 L17.7734375,11.5234375 C17.7734375,12.8307357 17.8033851,13.6575504 17.8632812,14.0039062 C17.9231774,14.3502621 18.0416658,14.6822901 18.21875,15 L16.75,15 C16.6041659,14.7083319 16.5104169,14.3671895 16.46875,13.9765625 C15.9479141,14.419273 15.446617,14.7317699 14.9648438,14.9140625 Z M16.3515625,10.8359375 C15.8411433,11.0442719 15.0755259,11.2213534 14.0546875,11.3671875 C13.4765596,11.4505212 13.0677095,11.5442703 12.828125,11.6484375 C12.5885405,11.7526047 12.4036465,11.9049469 12.2734375,12.1054688 C12.1432285,12.3059906 12.078125,12.5286446 12.078125,12.7734375 C12.078125,13.1484394 12.2200507,13.4609362 12.5039062,13.7109375 C12.7877618,13.9609388 13.2031223,14.0859375 13.75,14.0859375 C14.2916694,14.0859375 14.7734354,13.9674491 15.1953125,13.7304688 C15.6171896,13.4934884 15.9270823,13.1692729 16.125,12.7578125 C16.2760424,12.4401026 16.3515625,11.9713573 16.3515625,11.3515625 L16.3515625,10.8359375 Z M7.69009467,12.5261876 L3.43918115,12.5261876 L2.55002159,14.9622412 L0.576818182,14.9622412 L4.71810929,4 L6.42334681,4 L10.5768182,14.9622412 L8.5914345,14.9622412 L7.69009467,12.5261876 L7.69009467,12.5261876 Z M3.98729321,11.6650426 L7.16634315,11.6650426 L5.58290832,7 L3.98729321,11.6650426 L3.98729321,11.6650426 Z" id="Font-style"></path>
                        </g>
                    </g>
                </g>
            </g>
        </g>
    </g>
</svg>