<?xml version="1.0" encoding="UTF-8" standalone="no"?>
<svg width="16px" height="16px" viewBox="0 0 16 16" version="1.1" xmlns="http://www.w3.org/2000/svg" xmlns:xlink="http://www.w3.org/1999/xlink">
    <!-- Generator: sketchtool 3.8.2 (29753) - http://www.bohemiancoding.com/sketch -->
    <title>E3172F61-9260-47AC-B957-DEA99FC8D2BD</title>
    <desc>Created with sketchtool.</desc>
    <defs></defs>
    <g id="Page-1" stroke="none" stroke-width="1" fill="none" fill-rule="evenodd">
        <g id="Style" transform="translate(-11.000000, -87.000000)" fill="#FFFFFF">
            <g id="Right-Panel" transform="translate(-1.000000, 0.000000)">
                <g id="Style-tab" transform="translate(0.000000, 10.000000)">
                    <g id="TYPOGRAPHY" transform="translate(7.000000, 40.000000)">
                        <g id="Font-family" transform="translate(5.000000, 35.000000)">
                            <path d="M6.344,11.2 L9.656,11.2 L8,6.784 L6.344,11.2 Z M14.4,2 L1.6,2 C0.72,2 0,2.72 0,3.6 L0,16.4 C0,17.28 0.72,18 1.6,18 L14.4,18 C15.28,18 16,17.28 16,16.4 L16,3.6 C16,2.72 15.28,2 14.4,2 L14.4,2 Z M11.16,15.2 L10.248,12.8 L5.736,12.8 L4.84,15.2 L3.168,15.2 L7.256,4.8 L8.744,4.8 L12.832,15.2 L11.16,15.2 L11.16,15.2 Z" id="Font-Family"></path>
                        </g>
                    </g>
                </g>
            </g>
        </g>
    </g>
</svg>