<?xml version="1.0" encoding="UTF-8" standalone="no"?>
<svg width="17px" height="15px" viewBox="0 0 17 15" version="1.1" xmlns="http://www.w3.org/2000/svg" xmlns:xlink="http://www.w3.org/1999/xlink">
    <!-- Generator: sketchtool 3.8.2 (29753) - http://www.bohemiancoding.com/sketch -->
    <title>3C9CFD67-69A3-48F5-8FCB-12074C433337</title>
    <desc>Created with sketchtool.</desc>
    <defs></defs>
    <g id="Page-1" stroke="none" stroke-width="1" fill="none" fill-rule="evenodd">
        <g id="Style" transform="translate(-11.000000, -143.000000)" fill="#FFFFFF">
            <g id="Right-Panel" transform="translate(-1.000000, 0.000000)">
                <g id="Style-tab" transform="translate(0.000000, 10.000000)">
                    <g id="TYPOGRAPHY" transform="translate(7.000000, 40.000000)">
                        <g id="Line-Height" transform="translate(5.000000, 90.000000)">
                            <path d="M3.73170732,5.90243902 L5.80487805,5.90243902 L2.90243902,3 L0,5.90243902 L2.07317073,5.90243902 L2.07317073,14.195122 L0,14.195122 L2.90243902,17.097561 L5.80487805,14.195122 L3.73170732,14.195122 L3.73170732,5.90243902 L3.73170732,5.90243902 Z M7.04878049,4.24390244 L7.04878049,5.90243902 L17,5.90243902 L17,4.24390244 L7.04878049,4.24390244 L7.04878049,4.24390244 Z M7.04878049,15.8536585 L17,15.8536585 L17,14.195122 L7.04878049,14.195122 L7.04878049,15.8536585 L7.04878049,15.8536585 Z M7.04878049,10.8780488 L17,10.8780488 L17,9.2195122 L7.04878049,9.2195122 L7.04878049,10.8780488 L7.04878049,10.8780488 Z" id="Shape"></path>
                        </g>
                    </g>
                </g>
            </g>
        </g>
    </g>
</svg>