<?xml version="1.0" encoding="UTF-8" standalone="no"?>
<svg width="15px" height="12px" viewBox="0 0 15 12" version="1.1" xmlns="http://www.w3.org/2000/svg" xmlns:xlink="http://www.w3.org/1999/xlink">
    <!-- Generator: sketchtool 39.1 (31720) - http://www.bohemiancoding.com/sketch -->
    <title>19B4ABC6-AE38-4DD8-80BA-EC0553DBD4E2</title>
    <desc>Created with sketchtool.</desc>
    <defs></defs>
    <g id="Page-1" stroke="none" stroke-width="1" fill="none" fill-rule="evenodd">
        <g id="Link-Settings" transform="translate(-187.000000, -30.000000)" fill="#FFFFFF">
            <g id="URL-Setting" transform="translate(-1.000000, 0.000000)">
                <g id="Options" transform="translate(90.900826, 21.000000)">
                    <g id="email" transform="translate(97.000000, 9.000000)">
                        <path d="M13.5991736,0 L1.59917355,0 C0.774173554,0 0.106673554,0.675 0.106673554,1.5 L0.0991735537,10.5 C0.0991735537,11.325 0.774173554,12 1.59917355,12 L13.5991736,12 C14.4241736,12 15.0991736,11.325 15.0991736,10.5 L15.0991736,1.5 C15.0991736,0.675 14.4241736,0 13.5991736,0 L13.5991736,0 Z M13.5991736,3 L7.59917355,6.75 L1.59917355,3 L1.59917355,1.5 L7.59917355,5.25 L13.5991736,1.5 L13.5991736,3 L13.5991736,3 Z" id="email-link-icon"></path>
                    </g>
                </g>
            </g>
        </g>
    </g>
</svg>