<?xml version="1.0" encoding="UTF-8" standalone="no"?>
<svg width="19px" height="15px" viewBox="0 0 19 15" version="1.1" xmlns="http://www.w3.org/2000/svg" xmlns:xlink="http://www.w3.org/1999/xlink">
    <!-- Generator: sketchtool 39.1 (31720) - http://www.bohemiancoding.com/sketch -->
    <title>12F6A81D-C31D-4C03-B090-1FFD6E55EBE2</title>
    <desc>Created with sketchtool.</desc>
    <defs></defs>
    <g id="Page-1" stroke="none" stroke-width="1" fill="none" fill-rule="evenodd">
        <g id="Link-Settings" transform="translate(-153.000000, -28.000000)" fill="#FFFFFF">
            <g id="URL-Setting" transform="translate(-1.000000, 0.000000)">
                <g id="Options" transform="translate(90.900826, 21.000000)">
                    <g id="anchor" transform="translate(63.000000, 7.000000)">
                        <path d="M7.90909091,-1.77635684e-15 C7.09090909,-1.77635684e-15 6.42892562,0.675 6.42892562,1.5 L6.4214876,13.5 C6.4214876,14.325 7.08347107,15 7.90165289,15 L16.8347107,15 C17.6528926,15 18.322314,14.325 18.322314,13.5 L18.322314,4.5 L13.8595041,-1.77635684e-15 L7.90909091,-1.77635684e-15 L7.90909091,-1.77635684e-15 Z M8.22540494,5.04105 L10.8467934,7.69166666 L0.47107438,7.69166666 L0.47107438,9.16833332 L10.8467934,9.16833332 L8.21808262,11.81895 L9.25785121,12.86 L13.6512396,8.42999999 L9.25785121,4 L8.22540494,5.04105 L8.22540494,5.04105 Z M13.1157025,5.25 L13.1157025,1.125 L17.2066116,5.25 L13.1157025,5.25 L13.1157025,5.25 Z" id="inpage-anchor-icon"></path>
                    </g>
                </g>
            </g>
        </g>
    </g>
</svg>