<?xml version="1.0" encoding="UTF-8" standalone="no"?>
<svg width="15px" height="15px" viewBox="0 0 15 15" version="1.1" xmlns="http://www.w3.org/2000/svg" xmlns:xlink="http://www.w3.org/1999/xlink">
    <!-- Generator: sketchtool 3.8.3 (29802) - http://www.bohemiancoding.com/sketch -->
    <title>A95AFC80-E197-463E-9F6A-237EBE4D2E53</title>
    <desc>Created with sketchtool.</desc>
    <defs></defs>
    <g id="Page-1" stroke="none" stroke-width="1" fill="none" fill-rule="evenodd">
        <g id="Icons" transform="translate(-95.000000, -772.000000)" fill="#FFFFFF">
            <g id="Text-Editor" transform="translate(21.000000, 762.000000)">
                <g id="Palette" transform="translate(74.000000, 10.000000)">
                    <path d="M7.5,0 C3.35833333,0 0,3.35833333 0,7.5 C0,11.6416667 3.35833333,15 7.5,15 C8.19166667,15 8.75,14.4416667 8.75,13.75 C8.75,13.425 8.625,13.1333333 8.425,12.9083333 C8.23333333,12.6916667 8.10833333,12.4 8.10833333,12.0833333 C8.10833333,11.3916667 8.66666667,10.8333333 9.35833333,10.8333333 L10.8333333,10.8333333 C13.1333333,10.8333333 15,8.96666667 15,6.66666667 C15,2.98333333 11.6416667,0 7.5,0 L7.5,0 Z M2.91666667,7.5 C2.225,7.5 1.66666667,6.94166667 1.66666667,6.25 C1.66666667,5.55833333 2.225,5 2.91666667,5 C3.60833333,5 4.16666667,5.55833333 4.16666667,6.25 C4.16666667,6.94166667 3.60833333,7.5 2.91666667,7.5 L2.91666667,7.5 Z M5.41666667,4.16666667 C4.725,4.16666667 4.16666667,3.60833333 4.16666667,2.91666667 C4.16666667,2.225 4.725,1.66666667 5.41666667,1.66666667 C6.10833333,1.66666667 6.66666667,2.225 6.66666667,2.91666667 C6.66666667,3.60833333 6.10833333,4.16666667 5.41666667,4.16666667 L5.41666667,4.16666667 Z M9.58333333,4.16666667 C8.89166667,4.16666667 8.33333333,3.60833333 8.33333333,2.91666667 C8.33333333,2.225 8.89166667,1.66666667 9.58333333,1.66666667 C10.275,1.66666667 10.8333333,2.225 10.8333333,2.91666667 C10.8333333,3.60833333 10.275,4.16666667 9.58333333,4.16666667 L9.58333333,4.16666667 Z M12.0833333,7.5 C11.3916667,7.5 10.8333333,6.94166667 10.8333333,6.25 C10.8333333,5.55833333 11.3916667,5 12.0833333,5 C12.775,5 13.3333333,5.55833333 13.3333333,6.25 C13.3333333,6.94166667 12.775,7.5 12.0833333,7.5 L12.0833333,7.5 Z"></path>
                </g>
            </g>
        </g>
    </g>
</svg>