<?xml version="1.0" encoding="UTF-8" standalone="no"?>
<svg width="15px" height="22px" viewBox="0 0 15 22" version="1.1" xmlns="http://www.w3.org/2000/svg" xmlns:xlink="http://www.w3.org/1999/xlink">
    <!-- Generator: sketchtool 3.8.3 (29802) - http://www.bohemiancoding.com/sketch -->
    <title>483FE8A2-6C98-4986-9AF3-4C4598A20F0A</title>
    <desc>Created with sketchtool.</desc>
    <defs></defs>
    <g id="Page-1" stroke="none" stroke-width="1" fill="none" fill-rule="evenodd">
        <g id="Full-View" transform="translate(-608.000000, -418.000000)">
            <g id="Main-column" transform="translate(30.000000, 112.000000)">
                <g id="blank-section-+-container-+-2-col-(-clicked-)" transform="translate(0.000000, 297.000000)">
                    <g id="Add-section" transform="translate(585.500000, 20.000000) rotate(-180.000000) translate(-585.500000, -20.000000) translate(578.000000, 9.000000)">
                        <g id="Tear-plus-Up">
                            <g id="Plus-Predefined-element-icon">
                                <path d="M7.5,7.10542736e-15 C3.35357143,7.10542736e-15 1.77635684e-15,3.35357143 1.77635684e-15,7.5 C1.77635684e-15,13.125 7.5,21.4285714 7.5,21.4285714 C7.5,21.4285714 15,13.125 15,7.5 C15,3.35357143 11.6464286,7.10542736e-15 7.5,7.10542736e-15 Z" id="Fill-222" fill="#475054" transform="translate(7.500000, 10.714286) rotate(180.000000) translate(-7.500000, -10.714286) "></path>
                                <polyline id="Fill-85" fill="#FFFFFF" points="11 13 8 13 8 16 7 16 7 13 4 13 4 12 7 12 7 9 8 9 8 12 11 12 11 13"></polyline>
                            </g>
                        </g>
                    </g>
                </g>
            </g>
        </g>
    </g>
</svg>