<?xml version="1.0" encoding="UTF-8"?>
<svg width="15px" height="11px" viewBox="0 0 15 11" version="1.1" xmlns="http://www.w3.org/2000/svg" xmlns:xlink="http://www.w3.org/1999/xlink">
    <!-- Generator: sketchtool 42 (36781) - http://www.bohemiancoding.com/sketch -->
    <title>351F0D5D-4F89-4BFB-AD58-93A7FCE1F879</title>
    <desc>Created with sketchtool.</desc>
    <defs></defs>
    <g id="Page-1" stroke="none" stroke-width="1" fill="none" fill-rule="evenodd">
        <g id="Full-View" transform="translate(-1103.000000, -87.000000)" fill="#FFFFFF">
            <g id="Top-Panel" transform="translate(-1.000000, 72.000000)">
                <g id="Preview-Button" transform="translate(1096.000000, 5.000000)">
                    <g id="Group-39" transform="translate(8.000000, 10.000000)">
                        <path d="M7.49982382,0 C4.09100519,0 1.17937936,2.12020484 0,5.1135803 C1.17937936,8.1066034 4.09100519,10.2271606 7.49982382,10.2271606 C10.9089948,10.2271606 13.8202683,8.1066034 15,5.1135803 C13.8202683,2.12020484 10.9089948,0 7.49982382,0 L7.49982382,0 Z M7.49982382,8.52239893 C5.61817285,8.52239893 4.09100519,6.99523127 4.09100519,5.1135803 C4.09100519,3.23157697 5.61817285,1.70440931 7.49982382,1.70440931 C9.38182715,1.70440931 10.9089948,3.23157697 10.9089948,5.1135803 C10.9089948,6.99523127 9.38182715,8.52239893 7.49982382,8.52239893 L7.49982382,8.52239893 Z M7.49982382,3.06807771 C6.36801428,3.06807771 5.45432122,3.98177077 5.45432122,5.1135803 C5.45432122,6.24538984 6.36801428,7.1590829 7.49982382,7.1590829 C8.63163335,7.1590829 9.54532641,6.24538984 9.54532641,5.1135803 C9.54532641,3.98177077 8.63163335,3.06807771 7.49982382,3.06807771 L7.49982382,3.06807771 Z" id="Preview"></path>
                    </g>
                </g>
            </g>
        </g>
    </g>
</svg>