<?xml version="1.0" encoding="UTF-8" standalone="no"?>
<svg width="19px" height="15px" viewBox="0 0 19 15" version="1.1" xmlns="http://www.w3.org/2000/svg" xmlns:xlink="http://www.w3.org/1999/xlink">
    <!-- Generator: sketchtool 3.8.3 (29802) - http://www.bohemiancoding.com/sketch -->
    <title>5EBCB537-664A-438C-9398-2CA3293008AD</title>
    <desc>Created with sketchtool.</desc>
    <defs></defs>
    <g id="Page-1" stroke="none" stroke-width="1" fill="none" fill-rule="evenodd">
        <g id="Icons" transform="translate(-62.000000, -772.000000)" fill="#FFFFFF">
            <g id="Text-Editor" transform="translate(21.000000, 762.000000)">
                <g id="Remove-text-style" transform="translate(41.000000, 10.000000)">
                    <path d="M6.51066324,5.42106153 L0.26,15 L3.18,15 L5.2,11.74 L11.26,11.74 L11.84,15 L14.46,15 L13.4526317,9.94172524 L16.5771376,11.9764277 L17.4151185,12.5221273 L18.5065178,10.8461656 L17.6685369,10.300466 L3.42286237,1.02357228 L2.58488151,0.477872651 L1.49348225,2.15383436 L2.3314631,2.69953399 L6.51066324,5.42106153 Z M10.6857802,8.13993006 L10.92,9.62 L6.4,9.62 L8.24857854,6.55280545 L10.6857802,8.13993006 Z M8.51951932,2.34255481 L9.5,0.84 L11.64,0.84 L12.4488285,4.90135139 L8.51951932,2.34255481 Z" id="Remove-style"></path>
                </g>
            </g>
        </g>
    </g>
</svg>