<?xml version="1.0" encoding="UTF-8"?>
<svg width="12px" height="12px" viewBox="0 0 12 12" version="1.1" xmlns="http://www.w3.org/2000/svg" xmlns:xlink="http://www.w3.org/1999/xlink">
    <!-- Generator: sketchtool 42 (36781) - http://www.bohemiancoding.com/sketch -->
    <title>229B6E92-CF53-414A-BF6D-8ACEEA7142E3</title>
    <desc>Created with sketchtool.</desc>
    <defs></defs>
    <g id="Page-1" stroke="none" stroke-width="1" fill="none" fill-rule="evenodd">
        <g id="Full-View" transform="translate(-1142.000000, -86.000000)" fill="#FFFFFF">
            <g id="Top-Panel" transform="translate(-1.000000, 72.000000)">
                <g id="Save-button" transform="translate(1131.000000, 5.000000)">
                    <g id="Group-38" transform="translate(12.000000, 9.000000)">
                        <path d="M9.33333333,0 L1.33333333,0 C0.593333333,0 0,0.6 0,1.33333333 L0,10.6666667 C0,11.4 0.593333333,12 1.33333333,12 L10.6666667,12 C11.4,12 12,11.4 12,10.6666667 L12,2.66666667 L9.33333333,0 L9.33333333,0 Z M6,10.6666667 C4.89333333,10.6666667 4,9.77333333 4,8.66666667 C4,7.56 4.89333333,6.66666667 6,6.66666667 C7.10666667,6.66666667 8,7.56 8,8.66666667 C8,9.77333333 7.10666667,10.6666667 6,10.6666667 L6,10.6666667 Z M1.33333333,1.33333333 L8,1.33333333 L8,4 L1.33333333,4 L1.33333333,1.33333333 Z" id="Save"></path>
                    </g>
                </g>
            </g>
        </g>
    </g>
</svg>