<?xml version="1.0" encoding="UTF-8"?>
<svg width="18px" height="22px" viewBox="0 0 18 22" version="1.1" xmlns="http://www.w3.org/2000/svg" xmlns:xlink="http://www.w3.org/1999/xlink">
    <!-- Generator: sketchtool 41.1 (35376) - http://www.bohemiancoding.com/sketch -->
    <title>9DA4F987-829B-4788-85DA-87DC0019BA7E</title>
    <desc>Created with sketchtool.</desc>
    <defs></defs>
    <g id="Page-1" stroke="none" stroke-width="1" fill="none" fill-rule="evenodd">
        <g id="Full-View" transform="translate(-690.000000, -82.000000)" fill="#FFFFFF">
            <g id="Top-Panel" transform="translate(-1.000000, 72.000000)">
                <g id="Tablet" transform="translate(691.000000, 10.000000)">
                    <path d="M15.7001882,0 L3.10549864,0 C1.83600251,0 0.805686807,1.0303157 0.805686807,2.29981183 L0.805686807,19.7001882 C0.805686807,20.9696843 1.83600251,22 3.10549864,22 L15.7001882,22 C16.9696843,22 18,20.9696843 18,19.7001882 L18,2.29981183 C18,1.0303157 16.9696843,0 15.7001882,0 L15.7001882,0 Z M9.36052687,21.0800753 C8.59698934,21.0800753 7.98063977,20.4637257 7.98063977,19.7001882 C7.98063977,18.9371106 8.59698934,18.3203011 9.36052687,18.3203011 C10.1240644,18.3203011 10.740414,18.9371106 10.740414,19.7001882 C10.740414,20.4637257 10.1240644,21.0800753 9.36052687,21.0800753 L9.36052687,21.0800753 Z M2.64553627,2.7597742 L16.1601505,2.7597742 L16.1601505,17.4008363 L2.64553627,17.4008363 L2.64553627,2.7597742 Z" id="Fill-283"></path>
                </g>
            </g>
        </g>
    </g>
</svg>