<?xml version="1.0" encoding="UTF-8"?>
<svg width="33px" height="22px" viewBox="0 0 33 22" version="1.1" xmlns="http://www.w3.org/2000/svg" xmlns:xlink="http://www.w3.org/1999/xlink">
    <!-- Generator: sketchtool 41.1 (35376) - http://www.bohemiancoding.com/sketch -->
    <title>3E54D401-D183-4291-A978-1F5C5393BA1C</title>
    <desc>Created with sketchtool.</desc>
    <defs></defs>
    <g id="Page-1" stroke="none" stroke-width="1" fill="none" fill-rule="evenodd">
        <g id="Full-View" transform="translate(-637.000000, -82.000000)" fill="#FFFFFF">
            <g id="Top-Panel" transform="translate(-1.000000, 72.000000)">
                <g id="Laptop" transform="translate(638.000000, 10.000000)">
                    <path d="M27.5,19.25 C29.0125,19.25 30.25,18.0125 30.25,16.5 L30.25,2.75 C30.25,1.2375 29.0125,0 27.5,0 L5.5,0 C3.9875,0 2.75,1.2375 2.75,2.75 L2.75,16.5 C2.75,18.0125 3.9875,19.25 5.5,19.25 L0,19.25 L0,22 L33,22 L33,19.25 L27.5,19.25 L27.5,19.25 Z M5.5,2.75 L27.5,2.75 L27.5,16.5 L5.5,16.5 L5.5,2.75 Z" id="Fill-291"></path>
                </g>
            </g>
        </g>
    </g>
</svg>