<?xml version="1.0" encoding="UTF-8" standalone="no"?>
<svg width="20px" height="21px" viewBox="0 0 20 21" version="1.1" xmlns="http://www.w3.org/2000/svg" xmlns:xlink="http://www.w3.org/1999/xlink">
    <!-- Generator: sketchtool 3.7 (28169) - http://www.bohemiancoding.com/sketch -->
    <title>2C19F09C-C625-4643-97BF-B8CA70AC3402</title>
    <desc>Created with sketchtool.</desc>
    <defs></defs>
    <g id="Page-1" stroke="none" stroke-width="1" fill="none" fill-rule="evenodd">
        <g id="Full-View" transform="translate(-1251.000000, -82.000000)" fill="#FFFFFF">
            <g id="Right-Panel" transform="translate(1200.000000, 72.000000)">
                <g id="Settings" transform="translate(0.000000, 10.000000)">
                    <g id="Settings-icon" transform="translate(51.000000, 0.000000)">
                        <path d="M17.6392784,11.2874397 C17.6803984,10.9584797 17.7112384,10.6295197 17.7112384,10.2799997 C17.7112384,9.93047974 17.6803984,9.60151975 17.6392784,9.27255976 L19.8083584,7.5763598 C20.0036784,7.42215981 20.0550784,7.14459981 19.9317184,6.91843982 L17.8757184,3.36155991 C17.7523584,3.13539992 17.4747984,3.05315992 17.2486384,3.13539992 L14.6894325,4.16339989 C14.1548725,3.7521999 13.5791925,3.41295991 12.9521126,3.15595992 L12.5614726,0.431759989 C12.5306326,0.185039995 12.3147526,0 12.0577526,0 L7.94575268,0 C7.68875269,0 7.47287269,0.185039995 7.4420327,0.431759989 L7.05139271,3.15595992 C6.42431272,3.41295991 5.84863274,3.7624799 5.31407275,4.16339989 L2.75435282,3.13539992 C2.51791282,3.04287992 2.25063283,3.13539992 2.12727283,3.36155991 L0.071272887,6.91843982 C-0.0623671095,7.14459981 -0.000687111141,7.42215981 0.194632884,7.5763598 L2.36371283,9.27255976 C2.32259283,9.60151975 2.29175283,9.94075974 2.29175283,10.2799997 C2.29175283,10.6192397 2.32259283,10.9584797 2.36371283,11.2874397 L0.194632884,12.9836397 C-0.000687111141,13.1378397 -0.0520871098,13.4153997 0.071272887,13.6415596 L2.12727283,17.1984396 C2.25063283,17.4245995 2.52819282,17.5068395 2.75435282,17.4245995 L5.31407275,16.3965996 C5.84863274,16.8077996 6.42431272,17.1470396 7.05139271,17.4040395 L7.4420327,20.1282395 C7.47287269,20.3749595 7.68875269,20.5599995 7.94575268,20.5599995 L12.0577526,20.5599995 C12.3147526,20.5599995 12.5306326,20.3749595 12.5614726,20.1282395 L12.9521126,17.4040395 C13.5791925,17.1470396 14.1548725,16.7975196 14.6894325,16.3965996 L17.2486384,17.4245995 C17.4850784,17.5171195 17.7523584,17.4245995 17.8757184,17.1984396 L19.9317184,13.6415596 C20.0550784,13.4153997 20.0036784,13.1378397 19.8083584,12.9836397 L17.6392784,11.2874397 L17.6392784,11.2874397 Z M10.0017526,13.8779996 C8.01771268,13.8779996 6.40375272,12.2640397 6.40375272,10.2799997 C6.40375272,8.29595978 8.01771268,6.68199983 10.0017526,6.68199983 C11.9857926,6.68199983 13.5997525,8.29595978 13.5997525,10.2799997 C13.5997525,12.2640397 11.9857926,13.8779996 10.0017526,13.8779996 L10.0017526,13.8779996 Z" id="Settings"></path>
                    </g>
                </g>
            </g>
        </g>
    </g>
</svg>