<?xml version="1.0" encoding="UTF-8" standalone="no"?>
<svg width="21px" height="20px" viewBox="0 0 21 20" version="1.1" xmlns="http://www.w3.org/2000/svg" xmlns:xlink="http://www.w3.org/1999/xlink">
    <!-- Generator: sketchtool 3.7 (28169) - http://www.bohemiancoding.com/sketch -->
    <title>23860E44-FACB-46CB-A277-418ABA233809</title>
    <desc>Created with sketchtool.</desc>
    <defs></defs>
    <g id="Page-1" stroke="none" stroke-width="1" fill="none" fill-rule="evenodd">
        <g id="Full-View" transform="translate(-1290.000000, -82.000000)" fill="#FFFFFF">
            <g id="Right-Panel" transform="translate(1200.000000, 72.000000)">
                <g id="Style-icon" transform="translate(90.000000, 10.000000)">
                    <path d="M5.52558874,12.159058 C3.69109328,12.159058 2.2102355,13.6399158 2.2102355,15.4744113 C2.2102355,16.9221155 0.928298908,17.6846468 0,17.6846468 C1.01670833,19.0328904 2.75174319,19.8948823 4.42047099,19.8948823 C6.86278121,19.8948823 8.84094198,17.9167215 8.84094198,15.4744113 C8.84094198,13.6399158 7.3600842,12.159058 5.52558874,12.159058 L5.52558874,12.159058 Z M20.6767531,1.80410472 L19.1958953,0.323246941 C18.7648994,-0.10774898 18.0686752,-0.10774898 17.6376793,0.323246941 L7.73582423,10.225102 L10.774898,13.2641758 L20.6767531,3.36232075 C21.107749,2.93132483 21.107749,2.23510064 20.6767531,1.80410472 L20.6767531,1.80410472 Z" id="Style"></path>
                </g>
            </g>
        </g>
    </g>
</svg>