<svg xmlns="http://www.w3.org/2000/svg" width="16" height="17" viewBox="0 0 16 17">
    <path fill="#FFF" fill-rule="evenodd" d="M2.845 13.655a2.792 2.792 0 0 1 0-3.946l2.546-2.545-1.21-1.21L1.637 8.5a4.502 4.502 0 0 0 0 6.364 4.502 4.502 0 0 0 6.364 0l2.546-2.546-1.21-1.209-2.545 2.546a2.792 2.792 0 0 1-3.946 0zm3.246-1.973l5.091-5.091-1.273-1.273-5.091 5.091 1.273 1.273zM8 2.136L5.454 4.682l1.21 1.209 2.545-2.546a2.792 2.792 0 0 1 3.946 0 2.792 2.792 0 0 1 0 3.946l-2.546 2.545 1.21 1.21L14.363 8.5a4.502 4.502 0 0 0 0-6.364 4.502 4.502 0 0 0-6.364 0z"/>
</svg>
