<?xml version="1.0" encoding="UTF-8" standalone="no"?>
<svg width="14px" height="10px" viewBox="0 0 14 10" version="1.1" xmlns="http://www.w3.org/2000/svg" xmlns:xlink="http://www.w3.org/1999/xlink">
    <!-- Generator: sketchtool 3.8.2 (29753) - http://www.bohemiancoding.com/sketch -->
    <title>9B59418A-4471-4380-A9E5-B6B06ECBB6F1</title>
    <desc>Created with sketchtool.</desc>
    <defs></defs>
    <g id="Page-1" stroke="none" stroke-width="1" fill="none" fill-rule="evenodd">
        <g id="Style" transform="translate(-151.000000, -144.000000)" fill="#FFFFFF">
            <g id="Right-Panel" transform="translate(-1.000000, 0.000000)">
                <g id="Style-tab" transform="translate(0.000000, 10.000000)">
                    <g id="TYPOGRAPHY" transform="translate(7.000000, 40.000000)">
                        <g id="Text-Decoration" transform="translate(145.000000, 90.000000)">
                            <path d="M7.84910639,9.14174248 L9.30067135,9.14174248 L11.2567809,14.1300001 L9.65341242,14.1300001 L8.8552912,11.9921754 L4.40148975,11.9921754 L3.60336852,14.1300001 L2,14.1300001 L4.40148977,9.14174248 L5.52881796,9.14174248 L4.99295458,10.5669589 L8.38496977,10.5669589 L7.84910639,9.14174248 Z M6.26712622,7.17809068 L5.6119284,7.17809068 L4.99295458,7.17809068 L6.27350024,4 L7.69871671,4 L8.73282412,6.81659166 L8.89013337,7.17809068 L8.3019453,7.17809068 L7.81844406,7.17809068 L7.11079813,7.17809068 L6.68896217,6.05614883 L6.26712622,7.17809068 Z" id="Combined-Shape"></path>
                            <polyline id="Line" points="0.582781764 9 13.4172182 9 14 9 14 8 13.4172182 8 0.582781764 8 0 8 0 9 0.582781764 9"></polyline>
                        </g>
                    </g>
                </g>
            </g>
        </g>
    </g>
</svg>