<?xml version="1.0" encoding="UTF-8" standalone="no"?>
<svg width="9px" height="9px" viewBox="0 0 9 9" version="1.1" xmlns="http://www.w3.org/2000/svg" xmlns:xlink="http://www.w3.org/1999/xlink">
    <!-- Generator: sketchtool 3.8.2 (29753) - http://www.bohemiancoding.com/sketch -->
    <title>CFB91728-7400-410C-96A5-6E563C081B0C</title>
    <desc>Created with sketchtool.</desc>
    <defs></defs>
    <g id="Page-1" stroke="none" stroke-width="1" fill="none" fill-rule="evenodd">
        <g id="Style" transform="translate(-103.000000, -175.000000)" fill="#FFFFFF">
            <g id="Right-Panel" transform="translate(-1.000000, 0.000000)">
                <g id="Style-tab" transform="translate(0.000000, 10.000000)">
                    <g id="TYPOGRAPHY" transform="translate(7.000000, 40.000000)">
                        <g id="Text-Align" transform="translate(5.000000, 120.000000)">
                            <g id="Text-Align-buttons" transform="translate(24.000000, 0.000000)">
                                <g id="button-inactive-copy-2" transform="translate(62.000000, 0.000000)">
                                    <g id="Group-10" transform="translate(6.000000, 5.000000)">
                                        <path d="M6,6 L1.77635684e-15,6 L1.77635684e-15,7 L6,7 L6,6 L6,6 Z M6,2 L1.77635684e-15,2 L1.77635684e-15,3 L6,3 L6,2 L6,2 Z M1.77635684e-15,5 L9,5 L9,4 L1.77635684e-15,4 L1.77635684e-15,5 L1.77635684e-15,5 Z M1.77635684e-15,9 L9,9 L9,8 L1.77635684e-15,8 L1.77635684e-15,9 L1.77635684e-15,9 Z M0,0 L0,1 L9,1 L9,0 L0,0 L0,0 Z" id="right-align" transform="translate(4.500000, 4.500000) rotate(-180.000000) translate(-4.500000, -4.500000) "></path>
                                    </g>
                                </g>
                            </g>
                        </g>
                    </g>
                </g>
            </g>
        </g>
    </g>
</svg>