<?xml version="1.0" encoding="UTF-8"?>
<svg width="16px" height="17px" viewBox="0 0 16 17" version="1.1" xmlns="http://www.w3.org/2000/svg" xmlns:xlink="http://www.w3.org/1999/xlink">
    <!-- Generator: sketchtool 40.3 (33839) - http://www.bohemiancoding.com/sketch -->
    <title>9303A144-91C8-4B76-ABE8-399F0311EB14</title>
    <desc>Created with sketchtool.</desc>
    <defs></defs>
    <g id="Page-1" stroke="none" stroke-width="1" fill="none" fill-rule="evenodd">
        <g id="Icons" transform="translate(-145.000000, -859.000000)" fill="#FFFFFF">
            <g id="Text-Editor" transform="translate(38.000000, 851.000000)">
                <g id="Link" transform="translate(105.000000, 6.000000)">
                    <path d="M2.71,10.5 C2.71,8.961 3.961,7.71 5.5,7.71 L9.1,7.71 L9.1,6 L5.5,6 C3.016,6 1,8.016 1,10.5 C1,12.984 3.016,15 5.5,15 L9.1,15 L9.1,13.29 L5.5,13.29 C3.961,13.29 2.71,12.039 2.71,10.5 L2.71,10.5 Z M6.4,11.4 L13.6,11.4 L13.6,9.6 L6.4,9.6 L6.4,11.4 Z M14.5,6 L10.9,6 L10.9,7.71 L14.5,7.71 C16.039,7.71 17.29,8.961 17.29,10.5 C17.29,12.039 16.039,13.29 14.5,13.29 L10.9,13.29 L10.9,15 L14.5,15 C16.984,15 19,12.984 19,10.5 C19,8.016 16.984,6 14.5,6 L14.5,6 Z" transform="translate(10.000000, 10.500000) rotate(-45.000000) translate(-10.000000, -10.500000) "></path>
                </g>
            </g>
        </g>
    </g>
</svg>