<?xml version="1.0" encoding="UTF-8" standalone="no"?>
<svg width="14px" height="14px" viewBox="0 0 14 14" version="1.1" xmlns="http://www.w3.org/2000/svg" xmlns:xlink="http://www.w3.org/1999/xlink">
    <!-- Generator: sketchtool 3.8.2 (29753) - http://www.bohemiancoding.com/sketch -->
    <title>ECB43461-998E-4A20-90EB-9966E5A72A0E</title>
    <desc>Created with sketchtool.</desc>
    <defs></defs>
    <g id="Page-1" stroke="none" stroke-width="1" fill="none" fill-rule="evenodd">
        <g id="Style" transform="translate(-11.000000, -173.000000)" fill="#FFFFFF">
            <g id="Right-Panel" transform="translate(-1.000000, 0.000000)">
                <g id="Style-tab" transform="translate(0.000000, 10.000000)">
                    <g id="TYPOGRAPHY" transform="translate(7.000000, 40.000000)">
                        <g id="Text-Align" transform="translate(5.000000, 120.000000)">
                            <path d="M0.777777778,13.8888889 L2.02777778,13.8888889 L2.65,12.2222222 L6.12222222,12.2222222 L6.74444444,13.8888889 L7.99444444,13.8888889 L4.94444444,6.11111111 L3.83333333,6.11111111 L0.777777778,13.8888889 Z M3.06666667,11.1111111 L4.38888889,7.59444444 L5.71111111,11.1111111 L3.06666667,11.1111111 L3.06666667,11.1111111 Z M0,17 L14,17 L14,15.4444444 L0,15.4444444 L0,17 Z M9.93030534,13.8888889 L14,13.8888889 L14,12.3333333 L9.93030534,12.3333333 L9.93030534,13.8888889 Z M0,3 L0,4.55555556 L14,4.55555556 L14,3 L0,3 Z M9.93030534,7.66666667 L14,7.66666667 L14,6.11111111 L9.93030534,6.11111111 L9.93030534,7.66666667 Z M9.93030534,10.7777778 L14,10.7777778 L14,9.22222222 L9.93030534,9.22222222 L9.93030534,10.7777778 Z" id="Text-align"></path>
                        </g>
                    </g>
                </g>
            </g>
        </g>
    </g>
</svg>