<?xml version="1.0" encoding="UTF-8" standalone="no"?>
<svg width="8px" height="9px" viewBox="0 0 8 9" version="1.1" xmlns="http://www.w3.org/2000/svg" xmlns:xlink="http://www.w3.org/1999/xlink">
    <!-- Generator: sketchtool 3.8.2 (29753) - http://www.bohemiancoding.com/sketch -->
    <title>45D3DF73-1A6A-4EFD-B2BC-E74E3F87F612</title>
    <desc>Created with sketchtool.</desc>
    <defs></defs>
    <g id="Page-1" stroke="none" stroke-width="1" fill="none" fill-rule="evenodd">
        <g id="Style" transform="translate(-215.000000, -145.000000)" fill="#FFFFFF">
            <g id="Right-Panel" transform="translate(-1.000000, 0.000000)">
                <g id="Style-tab" transform="translate(0.000000, 10.000000)">
                    <g id="TYPOGRAPHY" transform="translate(7.000000, 40.000000)">
                        <g id="Text-Decoration" transform="translate(145.000000, 90.000000)">
                            <g id="Text-decoration-buttons" transform="translate(17.000000, 0.000000)">
                                <g id="button-inactive-copy" transform="translate(40.000000, 0.000000)">
                                    <g id="Group-4" transform="translate(5.000000, 5.000000)">
                                        <path d="M4.2,9 L6.6,9 L6.6,7.2 L4.2,7.2 L4.2,9 L4.2,9 Z M1.2,0 L1.2,1.8 L4.2,1.8 L4.2,3.6 L6.6,3.6 L6.6,1.8 L9.6,1.8 L9.6,0 L1.2,0 L1.2,0 Z M0,6 L10.8,6 L10.8,4.8 L0,4.8 L0,6 L0,6 Z" id="Strikethrough"></path>
                                    </g>
                                </g>
                            </g>
                        </g>
                    </g>
                </g>
            </g>
        </g>
    </g>
</svg>