<svg width="19" height="12" viewBox="0 0 19 12" xmlns="http://www.w3.org/2000/svg"><title>548864E2-3B6A-43DD-9B8A-3085DA38EE93</title><path d="M14.965 10.914a4.346 4.346 0 0 1-1.55.274c-.912 0-1.613-.223-2.102-.668-.49-.446-.735-1.015-.735-1.707 0-.407.093-.778.277-1.114.185-.336.428-.605.727-.808.3-.204.637-.357 1.012-.461.276-.073.692-.144 1.25-.211 1.135-.136 1.971-.297 2.508-.485.005-.192.007-.315.007-.367 0-.573-.132-.976-.398-1.21-.36-.318-.893-.477-1.602-.477-.661 0-1.15.116-1.464.347-.316.232-.549.642-.7 1.23L10.82 5.07c.125-.588.331-1.063.617-1.425.287-.362.701-.641 1.243-.836.541-.196 1.169-.293 1.883-.293.708 0 1.283.083 1.726.25.443.166.768.376.977.629.208.252.354.571.437.957.047.24.07.671.07 1.296v1.875c0 1.308.03 2.135.09 2.48.06.347.179.68.356.997H16.75a2.982 2.982 0 0 1-.281-1.023c-.521.442-1.022.755-1.504.937zm1.387-4.078v.516c0 .62-.076 1.088-.227 1.406a2.189 2.189 0 0 1-.93.972 2.9 2.9 0 0 1-1.445.356c-.547 0-.962-.125-1.246-.375a1.198 1.198 0 0 1-.426-.938 1.2 1.2 0 0 1 .75-1.125c.24-.104.649-.197 1.227-.28 1.02-.147 1.786-.324 2.297-.532zM7.69 8.526H3.44l-.89 2.436H.577L4.718 0h1.705l4.154 10.962H8.59l-.9-2.436zm-3.703-.861h3.18L5.582 3 3.987 7.665z" fill="#FFF" fill-rule="evenodd"/></svg>