<svg width="16" height="12" viewBox="0 0 16 12" xmlns="http://www.w3.org/2000/svg"><title>5648ABE1-4653-4C95-86D5-FC7211560FA1</title><g fill="none" fill-rule="evenodd"><path d="M7.972 11.143l-.724-2.525H3.61l-.723 2.525H.605L4.128.493h2.588l3.537 10.65h-2.28zm-1.229-4.41a781.596 781.596 0 0 1-1.13-3.882c-.084-.3-.144-.537-.18-.71-.151.618-.581 2.149-1.291 4.591h2.601z" fill="#BCBCBC"/><path d="M12.716 11.143l-.492-1.988H8.981l-.505 1.988H5.513L8.769.493h3.599l3.297 10.65h-2.95zm-1.052-4.338l-.43-1.741c-.1-.387-.222-.888-.365-1.502a25.797 25.797 0 0 1-.283-1.32 31.17 31.17 0 0 1-.243 1.218c-.12.566-.388 1.681-.802 3.345h2.123z" fill="#FFF"/></g></svg>