<?xml version="1.0" encoding="UTF-8" standalone="no"?>
<svg width="27px" height="27px" viewBox="0 0 27 27" version="1.1" xmlns="http://www.w3.org/2000/svg" xmlns:xlink="http://www.w3.org/1999/xlink">
    <!-- Generator: sketchtool 40.3 (33839) - http://www.bohemiancoding.com/sketch -->
    <title>BC8F466C-6AD4-40B2-9277-BC42178E2F33</title>
    <desc>Created with sketchtool.</desc>
    <defs></defs>
    <g id="Page-1" stroke="none" stroke-width="1" fill="none" fill-rule="evenodd">
        <g id="All-panels-open" transform="translate(-54.000000, -475.000000)" fill="#FFFFFF">
            <g id="Left-panel" transform="translate(0.000000, 111.000000)">
                <g id="Add-element" transform="translate(30.000000, 0.000000)">
                    <g id="Component" transform="translate(11.000000, 264.000000)">
                        <g id="component" transform="translate(1.000000, 33.000000)">
                            <path d="M22.8,86.575 L30.9,80.5 L22.8,74.425 L22.8,86.575 L22.8,86.575 Z M25.5,67 C18.048,67 12,73.048 12,80.5 C12,87.952 18.048,94 25.5,94 C32.952,94 39,87.952 39,80.5 C39,73.048 32.952,67 25.5,67 L25.5,67 Z M25.5,91.3 C19.5465,91.3 14.7,86.4535 14.7,80.5 C14.7,74.5465 19.5465,69.7 25.5,69.7 C31.4535,69.7 36.3,74.5465 36.3,80.5 C36.3,86.4535 31.4535,91.3 25.5,91.3 L25.5,91.3 Z" id="Video"></path>
                        </g>
                    </g>
                </g>
            </g>
        </g>
    </g>
</svg>