<?xml version="1.0" encoding="UTF-8" standalone="no"?>
<svg width="16px" height="22px" viewBox="0 0 16 22" version="1.1" xmlns="http://www.w3.org/2000/svg" xmlns:xlink="http://www.w3.org/1999/xlink">
    <!-- Generator: sketchtool 40.3 (33839) - http://www.bohemiancoding.com/sketch -->
    <title>F99D0BD5-03E0-4DE2-8F0D-9132A8F86522</title>
    <desc>Created with sketchtool.</desc>
    <defs></defs>
    <g id="Page-1" stroke="none" stroke-width="1" fill="none" fill-rule="evenodd">
        <g id="All-panels-open" transform="translate(-59.000000, -545.000000)" fill="#FFFFFF">
            <g id="Left-panel" transform="translate(0.000000, 111.000000)">
                <g id="Add-element" transform="translate(30.000000, 0.000000)">
                    <g id="Component" transform="translate(11.000000, 264.000000)">
                        <g id="component" transform="translate(1.000000, 33.000000)">
                            <g id="Map-icon" transform="translate(14.000000, 137.000000)">
                                <path d="M10.7,0 C6.443,0 3,3.443 3,7.7 C3,13.475 10.7,22 10.7,22 C10.7,22 18.4,13.475 18.4,7.7 C18.4,3.443 14.957,0 10.7,0 L10.7,0 Z M10.7,10.45 C9.182,10.45 7.95,9.218 7.95,7.7 C7.95,6.182 9.182,4.95 10.7,4.95 C12.218,4.95 13.45,6.182 13.45,7.7 C13.45,9.218 12.218,10.45 10.7,10.45 L10.7,10.45 Z" id="Fill-222"></path>
                            </g>
                        </g>
                    </g>
                </g>
            </g>
        </g>
    </g>
</svg>