<?xml version="1.0" encoding="UTF-8" standalone="no"?>
<svg width="31px" height="31px" viewBox="0 0 31 31" version="1.1" xmlns="http://www.w3.org/2000/svg" xmlns:xlink="http://www.w3.org/1999/xlink">
    <!-- Generator: sketchtool 3.8.3 (29802) - http://www.bohemiancoding.com/sketch -->
    <title>BD596124-3DD3-4252-944A-8D44E3D990A5</title>
    <desc>Created with sketchtool.</desc>
    <defs></defs>
    <g id="Page-1" stroke="none" stroke-width="1" fill="none" fill-rule="evenodd">
        <g id="All-panels-open" transform="translate(-114.000000, -408.000000)" fill="#FFFFFF">
            <g id="Left-panel" transform="translate(0.000000, 111.000000)">
                <g id="Add-element" transform="translate(30.000000, 0.000000)">
                    <g id="Component" transform="translate(11.000000, 264.000000)">
                        <g id="component" transform="translate(1.000000, 33.000000)">
                            <g id="image-icon" transform="translate(72.000000, 0.000000)">
                                <path d="M31,27.5555556 L31,3.44444444 C31,1.55 29.45,0 27.5555556,0 L3.44444444,0 C1.55,0 0,1.55 0,3.44444444 L0,27.5555556 C0,29.45 1.55,31 3.44444444,31 L27.5555556,31 C29.45,31 31,29.45 31,27.5555556 L31,27.5555556 Z M9.47222222,18.0833333 L13.7777778,23.2672222 L19.8055556,15.5 L27.5555556,25.8333333 L3.44444444,25.8333333 L9.47222222,18.0833333 L9.47222222,18.0833333 Z" id="Fill-394"></path>
                            </g>
                        </g>
                    </g>
                </g>
            </g>
        </g>
    </g>
</svg>