<?xml version="1.0" encoding="UTF-8" standalone="no"?>
<svg width="16px" height="18px" viewBox="0 0 16 18" version="1.1" xmlns="http://www.w3.org/2000/svg" xmlns:xlink="http://www.w3.org/1999/xlink">
    <!-- Generator: sketchtool 3.8.3 (29802) - http://www.bohemiancoding.com/sketch -->
    <title>8CF79AEF-852B-4B94-97B1-C7992095FD61</title>
    <desc>Created with sketchtool.</desc>
    <defs></defs>
    <g id="Page-1" stroke="none" stroke-width="1" fill="none" fill-rule="evenodd">
        <g id="Style-Tab" transform="translate(-117.000000, -245.000000)" fill="#FFFFFF">
            <g id="Right-Panel" transform="translate(-1.000000, 0.000000)">
                <g id="Style-tab" transform="translate(0.000000, 10.000000)">
                    <g id="BACKGROUND" transform="translate(1.000000, 194.000000)">
                        <g id="Select-background-type" transform="translate(0.000000, 34.000000)">
                            <g id="Color" transform="translate(110.000000, 0.000000)">
                                <g id="Group-13" transform="translate(7.000000, 7.000000)">
                                    <path d="M14.4,3.2 L11.2,3.2 L8,-2.48689958e-14 L4.8,3.2 L1.6,3.2 C0.72,3.2 7.10542736e-15,3.92 7.10542736e-15,4.8 L7.10542736e-15,16 C7.10542736e-15,16.88 0.72,17.6 1.6,17.6 L14.4,17.6 C15.28,17.6 16,16.88 16,16 L16,4.8 C16,3.92 15.28,3.2 14.4,3.2 L14.4,3.2 Z M14.4,16 L1.6,16 L1.6,4.8 L5.216,4.8 L8.032,2 L10.816,4.8 L14.4,4.8 L14.4,16 L14.4,16 Z M3.2,14.4 L12.8,14.4 L12.8,6.4 L3.2,6.4 L3.2,14.4 Z" id="Background-color" transform="translate(8.000000, 8.800000) rotate(-180.000000) translate(-8.000000, -8.800000) "></path>
                                </g>
                            </g>
                        </g>
                    </g>
                </g>
            </g>
        </g>
    </g>
</svg>