<?xml version="1.0" encoding="UTF-8" standalone="no"?>
<!-- Generator: Adobe Illustrator 16.0.0, SVG Export Plug-In . SVG Version: 6.00 Build 0)  -->

<svg
   xmlns:dc="http://purl.org/dc/elements/1.1/"
   xmlns:cc="http://creativecommons.org/ns#"
   xmlns:rdf="http://www.w3.org/1999/02/22-rdf-syntax-ns#"
   xmlns:svg="http://www.w3.org/2000/svg"
   xmlns="http://www.w3.org/2000/svg"
   xmlns:sodipodi="http://sodipodi.sourceforge.net/DTD/sodipodi-0.dtd"
   xmlns:inkscape="http://www.inkscape.org/namespaces/inkscape"
   version="1.1"
   id="Capa_1"
   x="0px"
   y="0px"
   width="612px"
   height="612px"
   viewBox="0 0 612 612"
   style="enable-background:new 0 0 612 612;"
   xml:space="preserve"
   inkscape:version="0.91 r13725"
   sodipodi:docname="expand-reverse.svg"><metadata
     id="metadata3504"><rdf:RDF><cc:Work
         rdf:about=""><dc:format>image/svg+xml</dc:format><dc:type
           rdf:resource="http://purl.org/dc/dcmitype/StillImage" /></cc:Work></rdf:RDF></metadata><defs
     id="defs3502" /><sodipodi:namedview
     pagecolor="#ffffff"
     bordercolor="#666666"
     borderopacity="1"
     objecttolerance="10"
     gridtolerance="10"
     guidetolerance="10"
     inkscape:pageopacity="0"
     inkscape:pageshadow="2"
     inkscape:window-width="1400"
     inkscape:window-height="895"
     id="namedview3500"
     showgrid="false"
     inkscape:zoom="1.2892157"
     inkscape:cx="430.10646"
     inkscape:cy="576.63562"
     inkscape:window-x="186"
     inkscape:window-y="6"
     inkscape:window-maximized="0"
     inkscape:current-layer="Capa_1" /><g
     id="g3463"
     transform="matrix(-1,0,0,1,612,0)"><g
       id="Right"><g
         id="g3466"><path
           d="m 277.58,179.679 -0.057,0.077 c -5.125,-4.705 -11.857,-7.631 -19.335,-7.631 -15.835,0 -28.688,12.852 -28.688,28.688 0,8.377 3.634,15.835 9.352,21.076 l -0.057,0.077 91.685,84.034 -91.686,84.055 0.057,0.076 c -5.718,5.221 -9.352,12.68 -9.352,21.057 0,15.836 12.852,28.688 28.688,28.688 7.478,0 14.21,-2.926 19.335,-7.611 l 0.057,0.076 114.75,-105.188 c 5.91,-5.451 9.295,-13.101 9.295,-21.152 0,-8.051 -3.385,-15.702 -9.295,-21.152 L 277.58,179.679 Z M 306,0 C 137.012,0 0,137.012 0,306 0,474.988 137.012,612 306,612 474.988,612 612,474.988 612,306 612,137.012 474.988,0 306,0 Z m 0,554.625 C 168.912,554.625 57.375,443.088 57.375,306 57.375,168.912 168.912,57.375 306,57.375 443.088,57.375 554.625,168.912 554.625,306 554.625,443.088 443.088,554.625 306,554.625 Z"
           id="path3468"
           inkscape:connector-curvature="0"
           style="fill:#ffffff" /></g></g></g><g
     id="g3470" /><g
     id="g3472" /><g
     id="g3474" /><g
     id="g3476" /><g
     id="g3478" /><g
     id="g3480" /><g
     id="g3482" /><g
     id="g3484" /><g
     id="g3486" /><g
     id="g3488" /><g
     id="g3490" /><g
     id="g3492" /><g
     id="g3494" /><g
     id="g3496" /><g
     id="g3498" /></svg>