<?xml version="1.0" encoding="UTF-8" standalone="no"?>
<svg width="20px" height="13px" viewBox="0 0 20 13" version="1.1" xmlns="http://www.w3.org/2000/svg" xmlns:xlink="http://www.w3.org/1999/xlink">
    <!-- Generator: sketchtool 3.8.2 (29753) - http://www.bohemiancoding.com/sketch -->
    <title>F208C4DC-381E-4009-8E51-D2CC2CC4B527</title>
    <desc>Created with sketchtool.</desc>
    <defs></defs>
    <g id="Page-1" stroke="none" stroke-width="1" fill="none" fill-rule="evenodd">
        <g id="Style" transform="translate(-188.000000, -114.000000)" fill="#FFFFFF">
            <g id="Right-Panel" transform="translate(-1.000000, 0.000000)">
                <g id="Style-tab" transform="translate(0.000000, 10.000000)">
                    <g id="TYPOGRAPHY" transform="translate(7.000000, 40.000000)">
                        <g id="Font-Color" transform="translate(182.000000, 61.000000)">
                            <path d="M5.71001681,3.11111111 L0.777777778,15.6659014 L2.79551193,15.6659014 L3.79989515,12.9755892 L9.40471222,12.9755892 L10.4090954,15.6659014 L12.4268296,15.6659014 L7.50355827,3.11111111 L5.71001681,3.11111111 L5.71001681,3.11111111 Z M4.4724732,11.1820477 L6.60678754,5.50548897 L8.74110188,11.1820477 L4.4724732,11.1820477 L4.4724732,11.1820477 Z M13.9131896,13.4211725 C13.9131896,14.9006387 15.123662,16.1111111 16.6031282,16.1111111 C18.0825944,16.1111111 19.2930668,14.9006387 19.2930668,13.4211725 C19.2930668,11.6323634 16.6031282,8.71377997 16.6031282,8.71377997 C16.6031282,8.39963595 13.9131896,11.6323634 13.9131896,13.4211725 Z" id="Shape"></path>
                        </g>
                    </g>
                </g>
            </g>
        </g>
    </g>
</svg>