<?xml version="1.0" encoding="UTF-8" standalone="no"?>
<svg width="22px" height="17px" viewBox="0 0 22 17" version="1.1" xmlns="http://www.w3.org/2000/svg" xmlns:xlink="http://www.w3.org/1999/xlink">
    <!-- Generator: sketchtool 3.8.3 (29802) - http://www.bohemiancoding.com/sketch -->
    <title>F2486B3A-AC64-4CD5-B786-AF023C8DCA3F</title>
    <desc>Created with sketchtool.</desc>
    <defs></defs>
    <g id="Page-1" stroke="none" stroke-width="1" fill="none" fill-rule="evenodd">
        <g id="Style-Tab" transform="translate(-143.000000, -173.000000)">
            <g id="Right-Panel" transform="translate(-1.000000, 0.000000)">
                <g id="Style-tab" transform="translate(0.000000, 10.000000)">
                    <g id="TYPOGRAPHY" transform="translate(7.000000, 40.000000)">
                        <g id="Letter-Spacing" transform="translate(137.000000, 118.000000)">
                            <g id="Icon">
                                <path d="M5.5,12.5 L5.5,13.5 L16.5,13.5 L16.5,12.5 L5.5,12.5 L5.5,12.5 Z M5.5,7.5 L5.5,8.5 L16.5,8.5 L16.5,7.5 L5.5,7.5 L5.5,7.5 Z" id="Shape" fill-opacity="0.61438519" fill="#FFFFFF" transform="translate(11.000000, 10.500000) rotate(90.000000) translate(-11.000000, -10.500000) "></path>
                                <polyline id="Fill-412" fill="#FFFFFF" points="8.0875 17.5875 7.5 17 5 19.5 7.5 22 8.0875 21.4125 6.17916667 19.5 8.0875 17.5875"></polyline>
                                <polyline id="Fill-413" fill="#FFFFFF" points="13.7475 17 13.16 17.5875 15.0683333 19.5 13.16 21.4125 13.7475 22 16.2475 19.5 13.7475 17"></polyline>
                                <path d="M6.5,19.5 L14.5,19.5" id="Line" stroke="#FFFFFF" stroke-linecap="square"></path>
                                <text id="a" font-family="OpenSans, Open Sans" font-size="13" font-weight="normal" fill="#FFFFFF">
                                    <tspan x="0" y="14">a</tspan>
                                </text>
                                <text id="a-copy" font-family="OpenSans, Open Sans" font-size="13" font-weight="normal" fill="#FFFFFF">
                                    <tspan x="15" y="14">a</tspan>
                                </text>
                            </g>
                        </g>
                    </g>
                </g>
            </g>
        </g>
    </g>
</svg>