<?xml version="1.0" encoding="UTF-8" standalone="no"?>
<svg width="12px" height="12px" viewBox="0 0 12 12" version="1.1" xmlns="http://www.w3.org/2000/svg" xmlns:xlink="http://www.w3.org/1999/xlink">
    <!-- Generator: sketchtool 39.1 (31720) - http://www.bohemiancoding.com/sketch -->
    <title>197A94AA-2980-4590-A2DE-C9AEE5820ADD</title>
    <desc>Created with sketchtool.</desc>
    <defs></defs>
    <g id="Page-1" stroke="none" stroke-width="1" fill="none" fill-rule="evenodd">
        <g id="Link-Settings" transform="translate(-220.000000, -30.000000)" fill="#FFFFFF">
            <g id="URL-Setting" transform="translate(-1.000000, 0.000000)">
                <g id="Options" transform="translate(90.900826, 21.000000)">
                    <g id="phone" transform="translate(130.000000, 9.000000)">
                        <path d="M2.51250689,5.19333333 C3.47250689,7.08 5.01917355,8.62 6.90584022,9.58666667 L8.37250689,8.12 C8.55250689,7.94 8.81917355,7.88 9.05250689,7.96 C9.79917355,8.20666667 10.6058402,8.34 11.4325069,8.34 C11.7991736,8.34 12.0991736,8.64 12.0991736,9.00666667 L12.0991736,11.3333333 C12.0991736,11.7 11.7991736,12 11.4325069,12 C5.17250689,12 0.0991735537,6.92666667 0.0991735537,0.666666667 C0.0991735537,0.3 0.399173554,0 0.76584022,0 L3.09917355,0 C3.46584022,0 3.76584022,0.3 3.76584022,0.666666667 C3.76584022,1.5 3.89917355,2.3 4.14584022,3.04666667 C4.21917355,3.28 4.16584022,3.54 3.97917355,3.72666667 L2.51250689,5.19333333" id="phone-link-icon"></path>
                    </g>
                </g>
            </g>
        </g>
    </g>
</svg>