<?xml version="1.0" encoding="UTF-8" standalone="no"?>
<svg width="9px" height="9px" viewBox="0 0 9 9" version="1.1" xmlns="http://www.w3.org/2000/svg" xmlns:xlink="http://www.w3.org/1999/xlink">
    <!-- Generator: sketchtool 3.8.2 (29753) - http://www.bohemiancoding.com/sketch -->
    <title>A486A174-B0F9-48A0-9FA0-384DE6733432</title>
    <desc>Created with sketchtool.</desc>
    <defs></defs>
    <g id="Page-1" stroke="none" stroke-width="1" fill="none" fill-rule="evenodd">
        <g id="Style" transform="translate(-82.000000, -175.000000)" fill="#FFFFFF">
            <g id="Right-Panel" transform="translate(-1.000000, 0.000000)">
                <g id="Style-tab" transform="translate(0.000000, 10.000000)">
                    <g id="TYPOGRAPHY" transform="translate(7.000000, 40.000000)">
                        <g id="Text-Align" transform="translate(5.000000, 120.000000)">
                            <g id="Text-Align-buttons" transform="translate(24.000000, 0.000000)">
                                <g id="button-inactive-copy" transform="translate(40.000000, 0.000000)">
                                    <g id="Group-9" transform="translate(7.000000, 5.000000)">
                                        <path d="M0,9 L9,9 L9,8 L0,8 L0,9 L0,9 Z M0,7 L9,7 L9,6 L0,6 L0,7 L0,7 Z M0,5 L9,5 L9,4 L0,4 L0,5 L0,5 Z M0,3 L9,3 L9,2 L0,2 L0,3 L0,3 Z M0,0 L0,1 L9,1 L9,0 L0,0 L0,0 Z" id="Shape"></path>
                                    </g>
                                </g>
                            </g>
                        </g>
                    </g>
                </g>
            </g>
        </g>
    </g>
</svg>