<?xml version="1.0" encoding="UTF-8" standalone="no"?>
<svg width="9px" height="9px" viewBox="0 0 9 9" version="1.1" xmlns="http://www.w3.org/2000/svg" xmlns:xlink="http://www.w3.org/1999/xlink">
    <!-- Generator: sketchtool 3.8.2 (29753) - http://www.bohemiancoding.com/sketch -->
    <title>0A81125B-84BC-4D25-BE10-568A6D6401A3</title>
    <desc>Created with sketchtool.</desc>
    <defs></defs>
    <g id="Page-1" stroke="none" stroke-width="1" fill="none" fill-rule="evenodd">
        <g id="Style" transform="translate(-61.000000, -175.000000)" fill="#FFFFFF">
            <g id="Right-Panel" transform="translate(-1.000000, 0.000000)">
                <g id="Style-tab" transform="translate(0.000000, 10.000000)">
                    <g id="TYPOGRAPHY" transform="translate(7.000000, 40.000000)">
                        <g id="Text-Align" transform="translate(5.000000, 120.000000)">
                            <g id="Text-Align-buttons" transform="translate(24.000000, 0.000000)">
                                <g id="button-inactive" transform="translate(20.000000, 0.000000)">
                                    <g id="Group-8" transform="translate(6.000000, 5.000000)">
                                        <path d="M2,6 L2,7 L7,7 L7,6 L2,6 L2,6 Z M0,9 L9,9 L9,8 L0,8 L0,9 L0,9 Z M0,5 L9,5 L9,4 L0,4 L0,5 L0,5 Z M2,2 L2,3 L7,3 L7,2 L2,2 L2,2 Z M0,0 L0,1 L9,1 L9,0 L0,0 L0,0 Z" id="Shape"></path>
                                    </g>
                                </g>
                            </g>
                        </g>
                    </g>
                </g>
            </g>
        </g>
    </g>
</svg>