<?xml version="1.0" encoding="UTF-8" standalone="no"?>
<svg width="10px" height="13px" viewBox="0 0 10 13" version="1.1" xmlns="http://www.w3.org/2000/svg" xmlns:xlink="http://www.w3.org/1999/xlink">
    <!-- Generator: sketchtool 39.1 (31720) - http://www.bohemiancoding.com/sketch -->
    <title>EDFD66E4-3CE9-4812-87F4-3CE9765E6AF4</title>
    <desc>Created with sketchtool.</desc>
    <defs></defs>
    <g id="Page-1" stroke="none" stroke-width="1" fill="none" fill-rule="evenodd">
        <g id="Full-View" transform="translate(-1422.000000, -610.000000)" fill="#FFFFFF">
            <g id="Right-Panel" transform="translate(1197.000000, 72.000000)">
                <g id="Position,-border-&amp;-Spacings" transform="translate(13.000000, 535.000000)">
                    <g id="heading" transform="translate(1.000000, 0.000000)">
                        <path d="M216.012768,3 L216.012768,7.97765618 L220.025536,7.97765618 C220.025536,5.41664266 218.277115,3.3075727 216.012768,3 L216.012768,3 Z M211,11.3205654 C211,13.905953 213.019464,16 215.512768,16 C218.006072,16 220.025536,13.905953 220.025536,11.3205654 L220.025536,8.98084815 L211,8.98084815 L211,11.3205654 L211,11.3205654 Z M215.012768,3 C212.74842,3.3075727 211,5.41664266 211,7.97765618 L215.012768,7.97765618 L215.012768,3 L215.012768,3 Z" id="mouse-state"></path>
                    </g>
                </g>
            </g>
        </g>
    </g>
</svg>